<svg xmlns="http://www.w3.org/2000/svg" viewBox="0 0 814.48 1167.56"><defs><style>.cls-1,.cls-2,.cls-3,.cls-4{isolation:isolate;}.cls-2,.cls-3,.cls-4{font-size:8px;fill:#231f20;font-family:ArialMT, Arial;}.cls-3{letter-spacing:-0.04em;}.cls-4{letter-spacing:-0.12em;}.cls-5,.cls-6,.cls-7,.cls-8{fill:none;stroke:#231f20;stroke-miterlimit:10;}.cls-6{stroke-dasharray:12.12 26.26;}.cls-7{stroke-dasharray:12.19 26.4;}.cls-8{stroke-dasharray:12.2 26.42;}</style></defs><g id="Layer_2" data-name="Layer 2"><g id="Layer_1-2" data-name="Layer 1"><g class="cls-1"><text class="cls-2" transform="translate(6.87 882.03) rotate(-90)">NS</text><text class="cls-3" transform="translate(6.87 870.92) rotate(-90)">P</text></g><text class="cls-4" transform="translate(6.87 865.58) rotate(-90)">L</text><text class="cls-2" transform="translate(6.87 918.03) rotate(-90)">AMC</text><text class="cls-2" transform="translate(6.87 838.27) rotate(-90)">AE</text><g class="cls-1"><text class="cls-2" transform="translate(6.87 766.45) rotate(-90)">NS</text><text class="cls-3" transform="translate(6.87 755.34) rotate(-90)">P</text></g><text class="cls-4" transform="translate(6.87 750) rotate(-90)">L</text><text class="cls-2" transform="translate(6.87 802.45) rotate(-90)">AMC</text><text class="cls-2" transform="translate(6.87 722.69) rotate(-90)">AE</text><g class="cls-1"><text class="cls-2" transform="translate(6.87 650.88) rotate(-90)">NS</text><text class="cls-3" transform="translate(6.87 639.77) rotate(-90)">P</text></g><text class="cls-4" transform="translate(6.87 634.43) rotate(-90)">L</text><text class="cls-2" transform="translate(6.87 686.88) rotate(-90)">AMC</text><text class="cls-2" transform="translate(6.87 607.12) rotate(-90)">AE</text><g class="cls-1"><text class="cls-2" transform="translate(6.87 535.3) rotate(-90)">NS</text><text class="cls-3" transform="translate(6.87 524.19) rotate(-90)">P</text></g><text class="cls-4" transform="translate(6.87 518.85) rotate(-90)">L</text><text class="cls-2" transform="translate(6.87 571.3) rotate(-90)">AMC</text><text class="cls-2" transform="translate(6.87 491.54) rotate(-90)">AE</text><g class="cls-1"><text class="cls-2" transform="translate(6.87 419.73) rotate(-90)">NS</text><text class="cls-3" transform="translate(6.87 408.62) rotate(-90)">P</text></g><text class="cls-4" transform="translate(6.87 403.28) rotate(-90)">L</text><text class="cls-2" transform="translate(6.87 455.73) rotate(-90)">AMC</text><text class="cls-2" transform="translate(6.87 375.97) rotate(-90)">AE</text><g class="cls-1"><text class="cls-2" transform="translate(6.87 304.16) rotate(-90)">NS</text><text class="cls-3" transform="translate(6.87 293.04) rotate(-90)">P</text></g><text class="cls-4" transform="translate(6.87 287.71) rotate(-90)">L</text><text class="cls-2" transform="translate(6.87 340.16) rotate(-90)">AMC</text><text class="cls-2" transform="translate(6.87 260.4) rotate(-90)">AE</text><g class="cls-1"><text class="cls-2" transform="translate(6.87 188.58) rotate(-90)">NS</text><text class="cls-3" transform="translate(6.87 177.47) rotate(-90)">P</text></g><text class="cls-4" transform="translate(6.87 172.13) rotate(-90)">L</text><text class="cls-2" transform="translate(6.87 224.58) rotate(-90)">AMC</text><text class="cls-2" transform="translate(6.87 144.82) rotate(-90)">AE</text><g class="cls-1"><text class="cls-2" transform="translate(6.87 73.01) rotate(-90)">NS</text><text class="cls-3" transform="translate(6.87 61.9) rotate(-90)">P</text></g><text class="cls-4" transform="translate(6.87 56.56) rotate(-90)">L</text><text class="cls-2" transform="translate(6.87 109.01) rotate(-90)">AMC</text><text class="cls-2" transform="translate(6.87 29.25) rotate(-90)">AE</text><g class="cls-1"><text class="cls-2" transform="translate(807.61 51.31) rotate(90)">NS</text><text class="cls-3" transform="translate(807.61 62.42) rotate(90)">P</text></g><text class="cls-4" transform="translate(807.61 67.76) rotate(90)">L</text><text class="cls-2" transform="translate(807.61 15.31) rotate(90)">AMC</text><text class="cls-2" transform="translate(807.61 95.07) rotate(90)">AE</text><g class="cls-1"><text class="cls-2" transform="translate(807.61 166.89) rotate(90)">NS</text><text class="cls-3" transform="translate(807.61 178) rotate(90)">P</text></g><text class="cls-4" transform="translate(807.61 183.34) rotate(90)">L</text><text class="cls-2" transform="translate(807.61 130.89) rotate(90)">AMC</text><text class="cls-2" transform="translate(807.61 210.64) rotate(90)">AE</text><g class="cls-1"><text class="cls-2" transform="translate(807.61 282.46) rotate(90)">NS</text><text class="cls-3" transform="translate(807.61 293.57) rotate(90)">P</text></g><text class="cls-4" transform="translate(807.61 298.91) rotate(90)">L</text><text class="cls-2" transform="translate(807.61 246.46) rotate(90)">AMC</text><text class="cls-2" transform="translate(807.61 326.22) rotate(90)">AE</text><g class="cls-1"><text class="cls-2" transform="translate(807.61 398.03) rotate(90)">NS</text><text class="cls-3" transform="translate(807.61 409.14) rotate(90)">P</text></g><text class="cls-4" transform="translate(807.61 414.48) rotate(90)">L</text><text class="cls-2" transform="translate(807.61 362.03) rotate(90)">AMC</text><text class="cls-2" transform="translate(807.61 441.79) rotate(90)">AE</text><g class="cls-1"><text class="cls-2" transform="translate(807.61 513.61) rotate(90)">NS</text><text class="cls-3" transform="translate(807.61 524.72) rotate(90)">P</text></g><text class="cls-4" transform="translate(807.61 530.06) rotate(90)">L</text><text class="cls-2" transform="translate(807.61 477.61) rotate(90)">AMC</text><text class="cls-2" transform="translate(807.61 557.37) rotate(90)">AE</text><g class="cls-1"><text class="cls-2" transform="translate(807.61 629.18) rotate(90)">NS</text><text class="cls-3" transform="translate(807.61 640.29) rotate(90)">P</text></g><text class="cls-4" transform="translate(807.61 645.63) rotate(90)">L</text><text class="cls-2" transform="translate(807.61 593.18) rotate(90)">AMC</text><text class="cls-2" transform="translate(807.61 672.94) rotate(90)">AE</text><g class="cls-1"><text class="cls-2" transform="translate(807.61 744.76) rotate(90)">NS</text><text class="cls-3" transform="translate(807.61 755.87) rotate(90)">P</text></g><text class="cls-4" transform="translate(807.61 761.21) rotate(90)">L</text><text class="cls-2" transform="translate(807.61 708.76) rotate(90)">AMC</text><text class="cls-2" transform="translate(807.61 788.52) rotate(90)">AE</text><g class="cls-1"><text class="cls-2" transform="translate(807.61 860.33) rotate(90)">NS</text><text class="cls-3" transform="translate(807.61 871.44) rotate(90)">P</text></g><text class="cls-4" transform="translate(807.61 876.78) rotate(90)">L</text><text class="cls-2" transform="translate(807.61 824.33) rotate(90)">AMC</text><text class="cls-2" transform="translate(807.61 904.09) rotate(90)">AE</text><g class="cls-1"><text class="cls-2" transform="translate(51.32 6.87)">NS</text><text class="cls-3" transform="translate(62.43 6.87)">P</text></g><text class="cls-4" transform="translate(67.77 6.87)">L</text><text class="cls-2" transform="translate(15.32 6.87)">AMC</text><text class="cls-2" transform="translate(95.08 6.87)">AE</text><g class="cls-1"><text class="cls-2" transform="translate(166.89 6.87)">NS</text><text class="cls-3" transform="translate(178 6.87)">P</text></g><text class="cls-4" transform="translate(183.34 6.87)">L</text><text class="cls-2" transform="translate(130.89 6.87)">AMC</text><text class="cls-2" transform="translate(210.65 6.87)">AE</text><g class="cls-1"><text class="cls-2" transform="translate(282.47 6.87)">NS</text><text class="cls-3" transform="translate(293.58 6.87)">P</text></g><text class="cls-4" transform="translate(298.92 6.87)">L</text><text class="cls-2" transform="translate(246.47 6.87)">AMC</text><text class="cls-2" transform="translate(326.22 6.87)">AE</text><g class="cls-1"><text class="cls-2" transform="translate(398.04 6.87)">NS</text><text class="cls-3" transform="translate(409.15 6.87)">P</text></g><text class="cls-4" transform="translate(414.49 6.87)">L</text><text class="cls-2" transform="translate(362.04 6.87)">AMC</text><text class="cls-2" transform="translate(441.8 6.87)">AE</text><g class="cls-1"><text class="cls-2" transform="translate(513.61 6.87)">NS</text><text class="cls-3" transform="translate(524.72 6.87)">P</text></g><text class="cls-4" transform="translate(530.06 6.87)">L</text><text class="cls-2" transform="translate(477.61 6.87)">AMC</text><text class="cls-2" transform="translate(557.37 6.87)">AE</text><g class="cls-1"><text class="cls-2" transform="translate(629.19 6.87)">NS</text><text class="cls-3" transform="translate(640.3 6.87)">P</text></g><text class="cls-4" transform="translate(645.64 6.87)">L</text><text class="cls-2" transform="translate(593.19 6.87)">AMC</text><text class="cls-2" transform="translate(672.95 6.87)">AE</text><g class="cls-1"><text class="cls-2" transform="translate(744.76 6.87)">NS</text><text class="cls-3" transform="translate(755.87 6.87)">P</text></g><text class="cls-4" transform="translate(761.21 6.87)">L</text><text class="cls-2" transform="translate(708.76 6.87)">AMC</text><text class="cls-2" transform="translate(788.52 6.87)">AE</text><g class="cls-1"><text class="cls-2" transform="translate(51.32 933.07)">NS</text><text class="cls-3" transform="translate(62.43 933.07)">P</text></g><text class="cls-4" transform="translate(67.77 933.07)">L</text><text class="cls-2" transform="translate(15.32 933.07)">AMC</text><text class="cls-2" transform="translate(95.08 933.07)">AE</text><g class="cls-1"><text class="cls-2" transform="translate(166.89 933.07)">NS</text><text class="cls-3" transform="translate(178 933.07)">P</text></g><text class="cls-4" transform="translate(183.34 933.07)">L</text><text class="cls-2" transform="translate(130.89 933.07)">AMC</text><text class="cls-2" transform="translate(210.65 933.07)">AE</text><g class="cls-1"><text class="cls-2" transform="translate(282.47 933.07)">NS</text><text class="cls-3" transform="translate(293.58 933.07)">P</text></g><text class="cls-4" transform="translate(298.92 933.07)">L</text><text class="cls-2" transform="translate(246.47 933.07)">AMC</text><text class="cls-2" transform="translate(326.22 933.07)">AE</text><g class="cls-1"><text class="cls-2" transform="translate(398.04 933.07)">NS</text><text class="cls-3" transform="translate(409.15 933.07)">P</text></g><text class="cls-4" transform="translate(414.49 933.07)">L</text><text class="cls-2" transform="translate(362.04 933.07)">AMC</text><text class="cls-2" transform="translate(441.8 933.07)">AE</text><g class="cls-1"><text class="cls-2" transform="translate(513.61 933.07)">NS</text><text class="cls-3" transform="translate(524.72 933.07)">P</text></g><text class="cls-4" transform="translate(530.06 933.07)">L</text><text class="cls-2" transform="translate(477.61 933.07)">AMC</text><text class="cls-2" transform="translate(557.37 933.07)">AE</text><g class="cls-1"><text class="cls-2" transform="translate(629.19 933.07)">NS</text><text class="cls-3" transform="translate(640.3 933.07)">P</text></g><text class="cls-4" transform="translate(645.64 933.07)">L</text><text class="cls-2" transform="translate(593.19 933.07)">AMC</text><text class="cls-2" transform="translate(672.95 933.07)">AE</text><g class="cls-1"><text class="cls-2" transform="translate(744.76 933.07)">NS</text><text class="cls-3" transform="translate(755.87 933.07)">P</text></g><text class="cls-4" transform="translate(761.21 933.07)">L</text><text class="cls-2" transform="translate(708.76 933.07)">AMC</text><text class="cls-2" transform="translate(788.52 933.07)">AE</text><g class="cls-1"><text class="cls-2" transform="translate(806.61 1017.85) rotate(90)">NS</text><text class="cls-3" transform="translate(806.61 1028.96) rotate(90)">P</text></g><text class="cls-4" transform="translate(806.61 1034.3) rotate(90)">L</text><text class="cls-2" transform="translate(806.61 981.85) rotate(90)">AMC</text><text class="cls-2" transform="translate(806.61 1061.6) rotate(90)">AE</text><g class="cls-1"><text class="cls-2" transform="translate(806.61 1132.45) rotate(90)">NS</text><text class="cls-3" transform="translate(806.61 1143.56) rotate(90)">P</text></g><text class="cls-4" transform="translate(806.61 1148.9) rotate(90)">L</text><text class="cls-2" transform="translate(806.61 1096.45) rotate(90)">AMC</text><g class="cls-1"><text class="cls-2" transform="translate(6.87 1115.47) rotate(-90)">NS</text><text class="cls-3" transform="translate(6.87 1104.36) rotate(-90)">P</text></g><text class="cls-4" transform="translate(6.87 1099.02) rotate(-90)">L</text><text class="cls-2" transform="translate(6.87 1151.47) rotate(-90)">AMC</text><text class="cls-2" transform="translate(6.87 1071.72) rotate(-90)">AE</text><g class="cls-1"><text class="cls-2" transform="translate(6.87 999.85) rotate(-90)">NS</text><text class="cls-3" transform="translate(6.87 988.74) rotate(-90)">P</text></g><text class="cls-4" transform="translate(6.87 983.4) rotate(-90)">L</text><text class="cls-2" transform="translate(6.87 1035.85) rotate(-90)">AMC</text><g class="cls-1"><text class="cls-2" transform="translate(51.32 971.92)">NS</text><text class="cls-3" transform="translate(62.43 971.92)">P</text></g><text class="cls-4" transform="translate(67.77 971.92)">L</text><text class="cls-2" transform="translate(15.32 971.92)">AMC</text><text class="cls-2" transform="translate(95.08 971.92)">AE</text><g class="cls-1"><text class="cls-2" transform="translate(166.89 971.92)">NS</text><text class="cls-3" transform="translate(178 971.92)">P</text></g><text class="cls-4" transform="translate(183.34 971.92)">L</text><text class="cls-2" transform="translate(130.89 971.92)">AMC</text><text class="cls-2" transform="translate(210.65 971.92)">AE</text><g class="cls-1"><text class="cls-2" transform="translate(282.47 971.92)">NS</text><text class="cls-3" transform="translate(293.58 971.92)">P</text></g><text class="cls-4" transform="translate(298.92 971.92)">L</text><text class="cls-2" transform="translate(246.47 971.92)">AMC</text><text class="cls-2" transform="translate(326.22 971.92)">AE</text><g class="cls-1"><text class="cls-2" transform="translate(398.04 971.92)">NS</text><text class="cls-3" transform="translate(409.15 971.92)">P</text></g><text class="cls-4" transform="translate(414.49 971.92)">L</text><text class="cls-2" transform="translate(362.04 971.92)">AMC</text><text class="cls-2" transform="translate(441.8 971.92)">AE</text><g class="cls-1"><text class="cls-2" transform="translate(513.61 971.92)">NS</text><text class="cls-3" transform="translate(524.72 971.92)">P</text></g><text class="cls-4" transform="translate(530.06 971.92)">L</text><text class="cls-2" transform="translate(477.61 971.92)">AMC</text><text class="cls-2" transform="translate(557.37 971.92)">AE</text><g class="cls-1"><text class="cls-2" transform="translate(629.19 971.92)">NS</text><text class="cls-3" transform="translate(640.3 971.92)">P</text></g><text class="cls-4" transform="translate(645.64 971.92)">L</text><text class="cls-2" transform="translate(593.19 971.92)">AMC</text><text class="cls-2" transform="translate(672.95 971.92)">AE</text><g class="cls-1"><text class="cls-2" transform="translate(744.76 971.92)">NS</text><text class="cls-3" transform="translate(755.87 971.92)">P</text></g><text class="cls-4" transform="translate(761.21 971.92)">L</text><text class="cls-2" transform="translate(708.76 971.92)">AMC</text><text class="cls-2" transform="translate(788.52 971.92)">AE</text><g class="cls-1"><text class="cls-2" transform="translate(51.32 1164.97)">NS</text><text class="cls-3" transform="translate(62.43 1164.97)">P</text></g><text class="cls-4" transform="translate(67.77 1164.97)">L</text><text class="cls-2" transform="translate(15.32 1164.97)">AMC</text><text class="cls-2" transform="translate(95.08 1164.97)">AE</text><g class="cls-1"><text class="cls-2" transform="translate(166.89 1164.97)">NS</text><text class="cls-3" transform="translate(178 1164.97)">P</text></g><text class="cls-4" transform="translate(183.34 1164.97)">L</text><text class="cls-2" transform="translate(130.89 1164.97)">AMC</text><text class="cls-2" transform="translate(210.65 1164.97)">AE</text><g class="cls-1"><text class="cls-2" transform="translate(282.47 1164.97)">NS</text><text class="cls-3" transform="translate(293.58 1164.97)">P</text></g><text class="cls-4" transform="translate(298.92 1164.97)">L</text><text class="cls-2" transform="translate(246.47 1164.97)">AMC</text><text class="cls-2" transform="translate(326.22 1164.97)">AE</text><g class="cls-1"><text class="cls-2" transform="translate(398.04 1164.97)">NS</text><text class="cls-3" transform="translate(409.15 1164.97)">P</text></g><text class="cls-4" transform="translate(414.49 1164.97)">L</text><text class="cls-2" transform="translate(362.04 1164.97)">AMC</text><text class="cls-2" transform="translate(441.8 1164.97)">AE</text><g class="cls-1"><text class="cls-2" transform="translate(513.61 1164.97)">NS</text><text class="cls-3" transform="translate(524.72 1164.97)">P</text></g><text class="cls-4" transform="translate(530.06 1164.97)">L</text><text class="cls-2" transform="translate(477.61 1164.97)">AMC</text><text class="cls-2" transform="translate(557.37 1164.97)">AE</text><g class="cls-1"><text class="cls-2" transform="translate(629.19 1164.97)">NS</text><text class="cls-3" transform="translate(640.3 1164.97)">P</text></g><text class="cls-4" transform="translate(645.64 1164.97)">L</text><text class="cls-2" transform="translate(593.19 1164.97)">AMC</text><text class="cls-2" transform="translate(672.95 1164.97)">AE</text><g class="cls-1"><text class="cls-2" transform="translate(744.76 1164.97)">NS</text><text class="cls-3" transform="translate(755.87 1164.97)">P</text></g><text class="cls-4" transform="translate(761.21 1164.97)">L</text><text class="cls-2" transform="translate(708.76 1164.97)">AMC</text><text class="cls-2" transform="translate(788.52 1164.97)">AE</text></g><g id="line"><polyline class="cls-5" points="809.99 923.8 809.99 929.87 803.93 929.87"/><line class="cls-6" x1="777.68" y1="929.87" x2="23.18" y2="929.87"/><polyline class="cls-5" points="10.05 929.87 3.99 929.87 3.99 923.8"/><line class="cls-7" x1="3.99" y1="897.41" x2="3.99" y2="23.12"/><polyline class="cls-5" points="3.99 9.93 3.99 3.87 10.05 3.87"/><line class="cls-6" x1="36.31" y1="3.87" x2="790.8" y2="3.87"/><polyline class="cls-5" points="803.93 3.87 809.99 3.87 809.99 9.93"/><line class="cls-7" x1="809.99" y1="36.32" x2="809.99" y2="910.61"/><polyline class="cls-5" points="809.99 1156.56 809.99 1162.62 803.93 1162.62"/><line class="cls-6" x1="777.68" y1="1162.62" x2="23.18" y2="1162.62"/><polyline class="cls-5" points="10.05 1162.62 3.99 1162.62 3.99 1156.56"/><line class="cls-8" x1="3.99" y1="1130.14" x2="3.99" y2="988.88"/><polyline class="cls-5" points="3.99 975.67 3.99 969.62 10.05 969.62"/><line class="cls-6" x1="36.31" y1="969.62" x2="790.8" y2="969.62"/><polyline class="cls-5" points="803.93 969.62 809.99 969.62 809.99 975.67"/><line class="cls-8" x1="809.99" y1="1002.09" x2="809.99" y2="1143.35"/></g></g></svg>