<svg xmlns="http://www.w3.org/2000/svg" viewBox="0 0 647 647"><defs><style>.cls-1{fill:#31c5f4;}.cls-2{fill:#00aeef;}.cls-3{fill:#231f20;}</style></defs><g id="Layer_2" data-name="Layer 2"><g id="Layer_1-2" data-name="Layer 1"><circle class="cls-1" cx="323.5" cy="323.5" r="208.5"/><path d="M386.39,316.41c-1.75,7-1.08,14-.06,20.95,3.87,26.33,17.47,47.39,36,65.72a110,110,0,0,1,8.56,8.85c-3.92-.65-7.91-1-11.73-2A125.8,125.8,0,0,1,406,405.43c-1.7-.66-2.69-.65-4,.79a46.47,46.47,0,0,1-17.66,12l-4.49-14.48-.51.12c.7,4.57,1.46,9.13,2,13.71a3.16,3.16,0,0,1-1,2.61c-7.06,3.63-14.2,7.1-22.1,11l3.83-15.71-.61-.19c-1.91,4.8-3.67,9.67-5.83,14.35a7.4,7.4,0,0,1-3.75,3.59c-8.18,2.87-16.55,3.95-25.09,1.6-.61-.17-1.2-.41-2.08-.72L335,418.57l-.58-.44c-3.74,4.26-7.57,8.44-11.19,12.81-1.38,1.67-2.5,1.95-4.43.95a69.45,69.45,0,0,1-20.05-15.08c-8.2-9.05-7.42-18.11,2.46-25.15,10.25-7.29,22.13-9.77,34.43-10.54,2.56-.16,4.24,1.45,5.25,3.84,3.1,7.28,6.95,8.51,14.16,5.05,7.42-3.57,11-9.46,11.8-17.49,1.36-14-1.64-27.53-5.06-40.94-2-7.81-4.63-15.46-7-23.16a8.66,8.66,0,0,0-2.09-3.71c1,7.88,2.16,15.74,3,23.63.28,2.5.75,5.93-.57,7.44-2.14,2.45-5.12-.17-7.54-1.16-13.11-5.38-25.29-12.29-35.07-22.77-13.24-14.19-16.24-30.4-9.22-48.48.51-1.33,1-2.66,1.49-4,0-.07-.1-.19-.3-.56-8,12.12-13.29,24.74-9.54,39.45,3.7,14.49,14.42,23.1,26.71,30.53-1.58,4.33-3.11,8.56-4.65,12.79-4,11-8,22-12.17,33a6.83,6.83,0,0,1-3.42,3.54c-16.49,6.53-29.23-1.1-36.31-15.93-.34-.72.46-2.42,1.21-3.17,7.69-7.65,15.47-15.2,23.25-22.76a13.59,13.59,0,0,1,1.91-1.29l-.68-.84L262.64,352.3c.37-7,.67-13.89,1.17-20.79a5.71,5.71,0,0,1,1.76-2.95c3.77-4,7.63-7.87,11.18-12.24l-14,8.89c-5.08-8.44-2.33-6.34-15.63-13.93,2.72-2.24,5.3-4.35,7.88-6.46l-.92-1.06c-2.72,1.73-5.39,3.56-8.19,5.15a4.23,4.23,0,0,1-3.25.48c-13.88-6.3-25.8-14.92-33.4-28.62-1.23-2.22-1.16-3.48.73-5.3,13-12.53,25.81-25.2,38.69-37.83a1.66,1.66,0,0,0,.52-1.49l-45.74,29.64a69.35,69.35,0,0,1-2.82-19.33c0-.79,1.23-1.72,2.07-2.34,5.69-4.18,11.42-8.3,16.92-13L200.48,237c.45-1.57.68-2.7,1.08-3.77,14-36.68,39.62-59.66,78.76-66.7,12.31-2.22,24.63-4.46,37.2-4a77.8,77.8,0,0,1,14.11,1.77c9.86,2.17,16.17,8.31,18.48,18.22,1.29,5.49,2.22,11.05,3.39,16.56,1.25,5.88,3.94,10.72,10.62,13.5-1.41-1.85-2.38-3.07-3.29-4.34a29.53,29.53,0,0,1-5.81-20c.52-6.85,4-10.3,10.81-11.2,9.55-1.27,18.22,1.4,26.28,6.22,10.37,6.2,17.24,15.37,21.62,26.5a4.12,4.12,0,0,1,.25,1,3.69,3.69,0,0,1-.22.9l-20.82-7.08-.23.53c6.84,3.47,13.64,7,20.55,10.33,2,1,3.14,2.23,3.3,4.44.68,8.89,1.38,17.79,2.15,27.62l-17.94-6-.22.51c4.95,2.51,9.84,5.14,14.88,7.46,2.24,1,2.91,2.41,3,4.8.34,7.15,1,14.28,1.55,21.72l-7.8-2.59-.45.58.81.23c6.89,1.86,9.61,6.75,10.15,13.49.21,2.58,1.23,5.09,2,8.24L407.26,290l-.25.59c5.15,2.59,10.25,5.32,15.49,7.73a7.08,7.08,0,0,1,4.42,5.55c1.62,7.71.59,15.14-1.49,22.93L416.87,324l-.19.38,8.37,4.46c-.57,3.54-1.14,7.09-1.78,11l-10.71-3.48-.2.53c2.83,1.43,5.71,2.78,8.48,4.34.82.46,2,1.59,1.85,2.25-1.36,9.62-2.91,19.2-4.48,29.23l-4.29-2.31a2.08,2.08,0,0,0-.13.53c3.64,2,3.83,4.76,2.32,8.31-1.32,3.11-2.19,6.41-3.49,10.33C394.76,367.89,385.54,344,386.39,316.41ZM333.86,239c3.14-10.38,3.4-20.7-.61-30.6-6.43-15.85-16-22.05-31.37-21.45-11.64.46-22.68,3.49-33.51,7.42-6.56,2.39-13,5.21-19.45,7.83l.29.77c.5-.12,1-.19,1.51-.36a153.5,153.5,0,0,1,37.85-8,84.82,84.82,0,0,1,26,1.86c1.41.34,2.93.39,2.68,2.85-1.18,11.32-2.11,22.67-3.15,34a3.86,3.86,0,0,1-.45,1h-3.11l9.8,20.58.7-.24,1.2-44.69.62,0Q328.36,224.45,333.86,239Zm-.59,145.19c-12.26,1.8-22.39,6.3-31,14-2.23,2-4.11,4.74-2.49,7.93,1.74,3.42,5.16,2.69,8,2A60.33,60.33,0,0,0,336,392.28c1.26-1.25,2.3-4,1.76-5.43S334.53,384.85,333.27,384.16Zm38.1-131.57c0,.77-.14,1.24,0,1.56.51,1,1,2.19,1.79,2.74a2.58,2.58,0,0,0,2.51-.63c.71-1.06,1.49-2.7,1.15-3.72-1.71-5-10.89-10.39-16.18-10l6.84,11.86ZM380,265.18a10.55,10.55,0,0,1-10.56,2.58l-.05,1.37L379,273C379.42,269.84,379.71,267.51,380,265.18Z"/><path d="M446.52,373.05a51.77,51.77,0,0,1-23.3-7.85,3.26,3.26,0,0,1-1.17-2.64c.72-5.35,1.65-10.67,2.43-15.51Z"/><path d="M323.5,647A323.5,323.5,0,0,1,94.75,94.75a323.5,323.5,0,0,1,457.5,457.5A321.39,321.39,0,0,1,323.5,647Zm0-643C147.33,4,4,147.33,4,323.5S147.33,643,323.5,643,643,499.67,643,323.5,499.67,4,323.5,4Z"/><path class="cls-2" d="M323.5,631.5A308,308,0,0,1,105.71,105.71,308,308,0,0,1,541.29,541.29,306,306,0,0,1,323.5,631.5Zm0-613c-168.18,0-305,136.82-305,305s136.82,305,305,305,305-136.82,305-305S491.68,18.5,323.5,18.5Z"/><path class="cls-3" d="M72.74,195l7.56-14.23,34,18.05c7.68,4.08,11,14.9,4.38,27.46l-1.89,3.56-12-6.37,1.89-3.56c1.85-3.49,1-6.34-1.05-7.45Z"/><path class="cls-3" d="M139.52,157.33l-8.38,9.77L147.33,181l-10.5,12.23L94.92,157.27,105.41,145l16.19,13.89,8.39-9.77-16.2-13.89L124.29,123,166.21,159l-10.5,12.23Z"/><path class="cls-3" d="M214.09,123.93,201,132.84l-8.95-13.12-10,6.81,9,13.12L178,148.55l-22-32.31c-5.52-8.1-3-18.77,8.38-26.56s22.16-6.22,27.72,1.94ZM175,116.15l10-6.81-5.52-8.1c-1.42-2.09-4.21-2.67-7.54-.4s-3.87,5.12-2.44,7.21Z"/><path class="cls-3" d="M273.18,101.06l-17.37,6.09L238.18,91.49l-1.72.6,6.83,19.46-15.14,5.3L209.88,64.74l25.5-8.94c11-3.84,18.9,2.08,21.9,10.65,2.17,6.19,1.43,12.9-3.2,17.62ZM229,70.76l3.55,10.14,7.53-2.64c2.84-1,2.94-4,2.13-6.35-.89-2.54-2.85-4.78-5.68-3.79Z"/><path class="cls-3" d="M300.38,64l11.71-22.11,16.15-1.11-14,27.49L332,95.87l-18.36,1.26L301.41,79l1.3,18.92L286.32,99l-3.79-55.09,16.4-1.12Z"/><path class="cls-3" d="M379.62,82,367,79.4l-4.27,20.9-15.79-3.23L358,43l15.8,3.23-4.27,20.9,12.61,2.58,4.27-20.91L402.19,52,391.14,106.1l-15.79-3.23Z"/><path class="cls-3" d="M445,131.06l-14.1-7.12,7.16-14.18-10.79-5.44-7.16,14.17L406,111.37l17.63-34.91c4.42-8.74,15-11.73,27.3-5.5s16.14,16.38,11.69,25.2Zm-12.07-38,10.79,5.45,4.42-8.74c1.14-2.26.3-5-3.29-6.8s-6.36-.9-7.5,1.35Z"/><path class="cls-3" d="M506.88,109.51l-9.47,31.66,20-22.19,11.51,10.36-36.94,41L480.39,160l9.18-31.81-19.93,22.13-11.57-10.41,36.95-41Z"/><path class="cls-3" d="M502,182.49l46.3-30.1,14.56,22.39c5.25,8.08,4.77,17.34-4.83,23.59l-18,11.71c-9,5.85-18.07,3.08-23.37-5.07Zm46.25,2.72c2.39-1.54,3.14-3.73,1.33-6.51L546,173.14l-23.71,15.41,3.62,5.57c1.63,2.51,4,3.06,6.29,1.56Z"/><path class="cls-3" d="M166.58,490.72l11.94,10.82L152.67,530c-5.83,6.44-17.16,7-27.69-2.51l-3-2.7,9.13-10.07,3,2.71c2.92,2.65,5.88,2.56,7.48.81Z"/><path class="cls-3" d="M228.13,532.15l14.47,7.1-17.37,35.39c-3.82,7.8-14.54,11.52-27.3,5.25-13.69-6.72-16.49-17.15-12.7-24.88l17.37-35.39,14.47,7.1L200.26,561c-1,2.13-.18,4.85,3.65,6.72,3.55,1.74,6.37.84,7.41-1.29Z"/><path class="cls-3" d="M275.72,604.11l-16-3.18,10.78-54.16,16,3.18Z"/><path class="cls-3" d="M317.48,608.71l-2.89-55.14,26.67-1.4c9.62-.5,17.4,4.55,18,16l1.12,21.45c.57,10.73-6.37,17.19-16.08,17.7ZM343,570c-.14-2.84-1.66-4.58-5-4.41l-6.63.35,1.48,28.24,6.63-.35c3-.15,4.64-1.9,4.5-4.66Z"/><path class="cls-3" d="M423.74,575.16l17.72-7,5,12.72-21.54,8.48c-9,3.55-18,.55-22-9.44l-7.87-20c-4.2-10.66.79-18.48,9.76-22l21.39-8.42,4.86,12.35-17.72,7c-3.08,1.22-3.74,3.43-2.7,6.08l7,17.86C418.72,575.35,421,576.26,423.74,575.16Z"/><path class="cls-3" d="M496.5,498.57l14.9,18c5.59,6.76,4.74,18.13-6,27-11.26,9.31-22,7.52-27.57.76l-14.9-18c-5.54-6.69-5.3-17.56,6-26.87C479.64,490.58,491,491.87,496.5,498.57Zm-11.28,11.27c-1.56-1.88-4.45-2.16-7.5.36s-3.25,5.36-1.69,7.25l13,15.76c1.56,1.89,4.33,2.26,7.44-.3s3.31-5.41,1.75-7.3Z"/><path d="M275.08,464.06v4.66h10.09v6.64H275.08v4.7H287v6.68H266.52V457.38h20.41v6.68Z"/><path d="M294.28,468.72h12.6v6.64h-12.6Z"/><path d="M337.16,471.16v7.1c0,4.66-4.2,9-11.51,9-7.73,0-11.47-4.37-11.47-9V465.82c0-4.62,3.74-9,11.47-9,7.31,0,11.51,4.37,11.51,9v1.72H328.8v-.92c0-1.3-1.09-2.39-3.15-2.39s-3.11,1.09-3.11,2.39V477.5c0,1.3,1,2.39,3.11,2.39s3.15-1.09,3.15-2.39v-1.09h-3.15v-5.25Z"/><path d="M367.36,465.82v12.44c0,4.66-4.2,9-11.64,9-7.77,0-11.55-4.37-11.55-9V465.82c0-4.62,3.78-9,11.55-9C363.16,456.83,367.36,461.2,367.36,465.82Zm-8.44.8c0-1.3-1.1-2.39-3.2-2.39s-3.15,1.09-3.15,2.39V477.5c0,1.3,1,2.39,3.15,2.39s3.2-1.09,3.2-2.39Z"/><path d="M373.15,457.38h8.74l4.79,15.88,4.74-15.88h8.74l-9.66,29.36h-7.69Z"/></g></g></svg>